<svg xmlns="http://www.w3.org/2000/svg" width="91" height="90" viewBox="0 0 91 90"><defs><style>.a{fill:none;}.b{fill:#2cad6e;}.c{fill:#ccc;}.d{fill:#093;}.e{fill:#9c3;}.f{fill:#ee1c25;}.g{fill:#0b4ea2;}.h{fill:#fff;}.i{fill:#c6cccd;}</style></defs><g transform="translate(-282 -45)"><rect class="a" width="90" height="90" transform="translate(282 45)"/><g transform="translate(283 56)"><path class="b" d="M90,24.9H38.543v-7.3h7.3V7.287h-7.3V0H90V24.9Zm-61.775,0H0V0H28.225V7.287h-7.3V17.605h7.3v7.3Z" transform="translate(0 0.012)"/><path class="c" d="M90,4.687H38.543V0H90V4.686Zm-61.775,0H0V0H28.225V4.686Z" transform="translate(0)"/><path class="d" d="M90,6.768H45.841V2.61h-7.3V0H90V6.767Zm-90,0V0H28.225V2.61h-7.3V6.768H0Z" transform="translate(0 4.689)"/><path class="e" d="M90,6.134H45.841V0H90V6.133Zm-69.073,0H0V0H20.927V6.133Z" transform="translate(0 11.455)"/><path class="d" d="M.98-1.366H2V-3.561l.933-1.184L4.839-1.366H6.032L3.6-5.447,5.84-8.237h-1.2L2-4.8V-8.237H.98Zm5.8-6.871v5.042c0,1.463.356,1.828,1.78,1.828h.25v-.8H8.6c-.645,0-.837-.221-.837-.933V-8.237ZM9.477-7.169h.982V-8.285H9.477Zm0,5.8h.982V-6.255H9.477Zm2.348,0h.982V-2.444l.808-1.03,1.328,2.107h1.068l-1.8-2.82,1.665-2.069H14.76L12.807-3.724V-8.237h-.982Zm4.994,0H17.8v-2.5c0-1.193.279-1.646,1.02-1.646.693,0,.962.414.962,1.453v2.694h.982v-2.8a3.871,3.871,0,0,0-.144-1.241,1.542,1.542,0,0,0-1.636-.943,1.473,1.473,0,0,0-1.338.587l-.077-.491H16.82Zm5.235-4.888v2.8A3.831,3.831,0,0,0,22.2-2.213a1.493,1.493,0,0,0,1.588.943,1.345,1.345,0,0,0,1.289-.6l.106.5h.712V-6.255h-.982v2.5c0,1.193-.269,1.646-.962,1.646-.654,0-.914-.414-.914-1.443v-2.7Zm5.35.789v2.271c0,1.492.327,1.828,1.79,1.828h.173v-.808h-.154c-.635.019-.828-.212-.828-.924V-5.466h.962v-.789h-.962V-7.747h-.933L27.4-6.255h-.568v.789Zm2.877,4.1h.982V-6.255h-.982Zm-.01-5.591h.741l1.155-1.415H31.023Zm2.415,5.591h.982V-3.878c0-1.184.26-1.636.924-1.636.635,0,.876.4.876,1.453v2.694h.982v-2.54c0-1.145.26-1.607.914-1.607.625,0,.876.414.876,1.443v2.7h.982v-2.8a3.931,3.931,0,0,0-.135-1.241,1.458,1.458,0,0,0-1.569-.943,1.429,1.429,0,0,0-1.4.712,1.461,1.461,0,0,0-1.376-.712,1.341,1.341,0,0,0-1.232.577l-.077-.481h-.751ZM.672,6.941c0,1.5.635,2.165,2.069,2.165S4.8,8.442,4.8,6.941V6.19c0-1.5-.635-2.165-2.059-2.165S.672,4.689.672,6.19Zm3.147-.067c0,1-.327,1.443-1.087,1.443S1.654,7.874,1.654,6.873V6.257c0-1,.327-1.443,1.078-1.443s1.087.443,1.087,1.443ZM7.129,9.01h.914L9.766,4.121H8.775L7.582,7.787,6.388,4.121H5.4ZM11.335,6.8h3.1V6.411c0-1.674-.606-2.386-2.04-2.386s-2.04.712-2.04,2.386v.375c0,1.607.645,2.319,2.1,2.319a2,2,0,0,0,1.886-.837l-.731-.433a1.178,1.178,0,0,1-1.059.491c-.789,0-1.212-.472-1.212-1.357Zm0-.7V6.007a1.648,1.648,0,0,1,.192-.789.921.921,0,0,1,.895-.433c.7,0,1.078.423,1.078,1.212v.1ZM15.569,9.01h.982V6.633c0-1.241.26-1.761.885-1.761a1.045,1.045,0,0,1,.664.25l.423-.818a1.874,1.874,0,0,0-.991-.279,1.236,1.236,0,0,0-1.1.51l-.106-.414h-.76Zm4.09-4.1V7.181c0,1.492.327,1.828,1.79,1.828h.173V8.2h-.154c-.635.019-.828-.212-.828-.924V4.91H21.6V4.121H20.64V2.63h-.933l-.048,1.492h-.568V4.91ZM23.4,6.8h3.1V6.411c0-1.674-.606-2.386-2.04-2.386s-2.04.712-2.04,2.386v.375c0,1.607.645,2.319,2.1,2.319A2,2,0,0,0,26.4,8.269l-.731-.433a1.178,1.178,0,0,1-1.059.491c-.789,0-1.212-.472-1.212-1.357Zm0-.7V6.007a1.648,1.648,0,0,1,.192-.789.921.921,0,0,1,.895-.433c.7,0,1.078.423,1.078,1.212v.1Zm5.957-3.955V7.181c0,1.463.356,1.828,1.78,1.828h.25v-.8h-.212c-.645,0-.837-.221-.837-.933V2.139ZM32.88,6.8h3.1V6.411c0-1.674-.606-2.386-2.04-2.386s-2.04.712-2.04,2.386v.375c0,1.607.645,2.319,2.1,2.319a2,2,0,0,0,1.886-.837l-.731-.433a1.178,1.178,0,0,1-1.059.491c-.789,0-1.212-.472-1.212-1.357Zm0-.7V6.007a1.648,1.648,0,0,1,.192-.789.921.921,0,0,1,.895-.433c.7,0,1.078.423,1.078,1.212v.1ZM40.04,9.048c-.029,1.01-.385,1.453-1.193,1.453a1.082,1.082,0,0,1-1.01-.51l-.731.423a1.877,1.877,0,0,0,1.78.856c1.434,0,2.136-.76,2.136-2.329V4.121h-.76l-.087.385A1.721,1.721,0,0,0,38.8,4.025c-1.261,0-1.819.664-1.819,2.175v.731c0,1.5.558,2.175,1.809,2.175a1.718,1.718,0,0,0,1.261-.4ZM37.952,6.267c0-.991.327-1.453,1.039-1.453s1.049.433,1.049,1.309v.885c0,.876-.346,1.309-1.049,1.309s-1.039-.462-1.039-1.453ZM44.967,6.1H43.889c-1.386,0-1.848.385-1.848,1.511,0,1.1.452,1.492,1.684,1.492A1.714,1.714,0,0,0,45.1,8.692l.067.318h.779V5.988a2.431,2.431,0,0,0-.192-1.193,1.7,1.7,0,0,0-1.646-.77,2.2,2.2,0,0,0-1.848.779l.674.5a1.361,1.361,0,0,1,1.078-.491c.674,0,.953.3.953,1.01Zm0,.693v.635a.987.987,0,0,1-.115.616c-.154.2-.423.289-.885.289-.741,0-.991-.183-.991-.741,0-.577.279-.8,1.02-.8ZM43.677,3.419h.741L45.573,2H44.428Zm3.589-1.28V7.181c0,1.463.356,1.828,1.78,1.828h.25v-.8h-.212c-.645,0-.837-.221-.837-.933V2.139ZM49.961,9.01h.982v-2.5c0-1.193.279-1.646,1.02-1.646.693,0,.962.414.962,1.453V9.01h.982v-2.8a3.872,3.872,0,0,0-.144-1.241,1.542,1.542,0,0,0-1.636-.943,1.473,1.473,0,0,0-1.338.587l-.077-.491h-.751Zm5.119-2.069c0,1.5.635,2.165,2.069,2.165s2.059-.664,2.059-2.165V6.19c0-1.5-.635-2.165-2.059-2.165s-2.069.664-2.069,2.165Zm3.147-.067c0,1-.327,1.443-1.087,1.443s-1.078-.443-1.078-1.443V6.257c0-1,.327-1.443,1.078-1.443s1.087.443,1.087,1.443Zm1.646,1.4a2.137,2.137,0,0,0,1.963.837c1.347,0,2-.481,2-1.482a1.3,1.3,0,0,0-.443-1.116,2.686,2.686,0,0,0-1.366-.385,1.927,1.927,0,0,1-.693-.164.527.527,0,0,1-.269-.481c0-.433.3-.674.837-.674a1.151,1.151,0,0,1,1.039.5l.722-.423a1.974,1.974,0,0,0-1.838-.856c-1.1,0-1.694.529-1.694,1.5a1.217,1.217,0,0,0,.4.991,2.235,2.235,0,0,0,1.222.395,2.325,2.325,0,0,1,.847.173.536.536,0,0,1,.3.52c0,.481-.366.722-1.107.722a1.313,1.313,0,0,1-1.212-.5ZM64.992,4.91V7.181c0,1.492.327,1.828,1.79,1.828h.173V8.2H66.8c-.635.019-.828-.212-.828-.924V4.91h.962V4.121h-.962V2.63H65.04l-.048,1.492h-.568V4.91ZM66.965,3.65h.693l.529-2.1h-.972ZM.971,15.286v2.271c0,1.492.327,1.828,1.79,1.828h.173v-.808H2.78c-.635.019-.828-.212-.828-.924V15.286h.962V14.5H1.952V13.006H1.019L.971,14.5H.4v.789Zm4.061,4.051-.192.577c-.279.77-.433.885-1.184.876V21.6c1.424-.01,1.694-.212,2.184-1.6l1.848-5.5H6.7L5.551,18.269,4.291,14.5H3.3Zm.029-5.543H5.8L6.956,12.38H5.811Zm6.313,4.417a1.1,1.1,0,0,1-.982.481c-.712,0-1.078-.491-1.078-1.434V16.73c0-1.059.337-1.54,1.059-1.54a.977.977,0,0,1,.9.491l.731-.414a1.775,1.775,0,0,0-1.7-.866c-1.347,0-1.973.77-1.973,2.406v.356c0,1.559.654,2.319,2,2.319a1.943,1.943,0,0,0,1.771-.847Zm1.636,1.174h.982v-2.56c0-1.136.3-1.6,1.02-1.6.683,0,.962.414.962,1.443v2.714h.982v-2.8a3.912,3.912,0,0,0-.144-1.241A1.526,1.526,0,0,0,15.2,14.4a1.561,1.561,0,0,0-1.212.414v-2.3h-.982Zm5.418-4.1v2.271c0,1.492.327,1.828,1.79,1.828h.173v-.808h-.154c-.635.019-.828-.212-.828-.924V15.286h.962V14.5h-.962V13.006h-.933L18.427,14.5h-.568v.789Zm2.781,2.03c0,1.5.635,2.165,2.069,2.165s2.059-.664,2.059-2.165v-.751c0-1.5-.635-2.165-2.059-2.165s-2.069.664-2.069,2.165Zm3.147-.067c0,1-.327,1.443-1.087,1.443s-1.078-.443-1.078-1.443v-.616c0-1,.327-1.443,1.078-1.443s1.087.443,1.087,1.443Zm4.927,2.136H30.1l1.116-3.4,1.116,3.4h.818L34.632,14.5h-.991l-.953,3.637L31.562,14.5h-.693l-1.126,3.637L28.791,14.5H27.8Zm7-2.213h3.1v-.385c0-1.674-.606-2.386-2.04-2.386s-2.04.712-2.04,2.386v.375c0,1.607.645,2.319,2.1,2.319a2,2,0,0,0,1.886-.837l-.731-.433a1.178,1.178,0,0,1-1.059.491c-.789,0-1.212-.472-1.212-1.357Zm0-.7v-.087a1.648,1.648,0,0,1,.192-.789.921.921,0,0,1,.895-.433c.7,0,1.078.423,1.078,1.212v.1Zm4.2,2.916h.76l.067-.375c.154.125.25.2.279.221a2.053,2.053,0,0,0,1.078.25c1.3,0,1.857-.654,1.857-2.175v-.731c0-1.511-.558-2.175-1.838-2.175a1.726,1.726,0,0,0-1.222.4v-2.29h-.982Zm3.07-2.146c0,.991-.327,1.453-1.039,1.453s-1.049-.433-1.049-1.309V16.5c0-.876.346-1.309,1.049-1.309s1.039.462,1.039,1.453Zm2.021.077c0,1.5.635,2.165,2.069,2.165s2.059-.664,2.059-2.165v-.751c0-1.5-.635-2.165-2.059-2.165s-2.069.664-2.069,2.165Zm3.147-.067c0,1-.327,1.443-1.087,1.443s-1.078-.443-1.078-1.443v-.616c0-1,.327-1.443,1.078-1.443s1.087.443,1.087,1.443Zm3.31,2.136h.914L54.657,14.5h-.991l-1.193,3.666L51.28,14.5h-.991Zm4.552-.048-.192.577c-.279.77-.433.885-1.184.876V21.6c1.424-.01,1.694-.212,2.184-1.6l1.848-5.5h-.991l-1.145,3.772L55.831,14.5H54.84Zm.029-5.543h.741L58.5,12.38H57.352Zm6.313,4.417a1.1,1.1,0,0,1-.982.481c-.712,0-1.078-.491-1.078-1.434V16.73c0-1.059.337-1.54,1.059-1.54a.977.977,0,0,1,.9.491l.731-.414a1.775,1.775,0,0,0-1.7-.866c-1.347,0-1.973.77-1.973,2.406v.356c0,1.559.654,2.319,2,2.319a1.943,1.943,0,0,0,1.771-.847Zm1.636,1.174h.982v-2.56c0-1.136.3-1.6,1.02-1.6.683,0,.962.414.962,1.443v2.714h.982v-2.8a3.912,3.912,0,0,0-.144-1.241,1.526,1.526,0,0,0-1.607-.943,1.561,1.561,0,0,0-1.212.414v-2.3H64.55ZM.288,29.021a2.137,2.137,0,0,0,1.963.837c1.347,0,2-.481,2-1.482A1.3,1.3,0,0,0,3.81,27.26a2.686,2.686,0,0,0-1.366-.385,1.927,1.927,0,0,1-.693-.164.527.527,0,0,1-.269-.481c0-.433.3-.674.837-.674a1.151,1.151,0,0,1,1.039.5l.722-.423a1.974,1.974,0,0,0-1.838-.856c-1.1,0-1.694.529-1.694,1.5a1.217,1.217,0,0,0,.4.991,2.235,2.235,0,0,0,1.222.395,2.325,2.325,0,0,1,.847.173.536.536,0,0,1,.3.52c0,.481-.366.722-1.107.722A1.313,1.313,0,0,1,1,28.578Zm5.245-3.358v2.271c0,1.492.327,1.828,1.79,1.828H7.5v-.808H7.341c-.635.019-.828-.212-.828-.924V25.662h.962v-.789H6.514V23.382H5.58l-.048,1.492H4.964v.789Zm2.964,4.1h.982V27.385c0-1.241.26-1.761.885-1.761a1.045,1.045,0,0,1,.664.25l.423-.818a1.874,1.874,0,0,0-.991-.279,1.236,1.236,0,0,0-1.1.51l-.106-.414H8.5Zm6.274-2.906H13.692c-1.386,0-1.848.385-1.848,1.511,0,1.1.452,1.492,1.684,1.492a1.714,1.714,0,0,0,1.376-.414l.067.318h.779V26.74a2.431,2.431,0,0,0-.192-1.193,1.7,1.7,0,0,0-1.646-.77,2.2,2.2,0,0,0-1.848.779l.674.5a1.361,1.361,0,0,1,1.078-.491c.674,0,.953.3.953,1.01Zm0,.693v.635a.987.987,0,0,1-.115.616c-.154.2-.423.289-.885.289-.741,0-.991-.183-.991-.741,0-.577.279-.8,1.02-.8Zm-1.289-3.378h.741l1.155-1.415H14.231Zm3.6,5.591h.982v-2.5c0-1.193.279-1.646,1.02-1.646.693,0,.962.414.962,1.453v2.694h.982v-2.8a3.872,3.872,0,0,0-.144-1.241,1.542,1.542,0,0,0-1.636-.943,1.473,1.473,0,0,0-1.338.587l-.077-.491H17.08ZM22.2,27.693c0,1.5.635,2.165,2.069,2.165s2.059-.664,2.059-2.165v-.751c0-1.5-.635-2.165-2.059-2.165s-2.069.664-2.069,2.165Zm3.147-.067c0,1-.327,1.443-1.087,1.443s-1.078-.443-1.078-1.443v-.616c0-1,.327-1.443,1.078-1.443s1.087.443,1.087,1.443Zm2.184,2.136h.982V28.684l.808-1.03,1.328,2.107h1.068l-1.8-2.82,1.665-2.069H30.465L28.512,27.4V22.891H27.53Z" transform="translate(18.696 39.742)"/><g transform="translate(0.186 29.758)"><g transform="translate(0)"><rect class="f" width="15.401" height="10.044" transform="translate(0)"/><rect class="g" width="15.401" height="6.696" transform="translate(0)"/><rect class="h" width="15.401" height="3.348" transform="translate(0)"/><g transform="translate(2.939 2.285)"><path class="h" d="M4.044,6.839a3.362,3.362,0,0,1-2.188-3c0-1.7.081-2.477.081-2.477H6.15s.081.774.081,2.477A3.362,3.362,0,0,1,4.044,6.839Z" transform="translate(-1.855 -1.365)"/><path class="f" d="M3.971,6.522a3.084,3.084,0,0,1-2.007-2.75c0-1.562.075-2.272.075-2.272H5.9s.075.71.075,2.272a3.084,3.084,0,0,1-2.008,2.75Z" transform="translate(-1.783 -1.274)"/><path class="h" d="M3.833,3.29a3.213,3.213,0,0,0,1.049-.118s-.01.139-.01.3.01.3.01.3a3.372,3.372,0,0,0-1.049-.119v.863H3.479V3.656a3.373,3.373,0,0,0-1.049.119s.01-.139.01-.3-.01-.3-.01-.3a3.213,3.213,0,0,0,1.049.118V2.748a2.48,2.48,0,0,0-.83.119s.01-.139.01-.3-.01-.3-.01-.3a2.479,2.479,0,0,0,.829.119,4.819,4.819,0,0,0-.11-.776s.206.016.288.016.288-.016.288-.016a4.822,4.822,0,0,0-.11.776,2.479,2.479,0,0,0,.829-.119s-.01.139-.01.3.01.3.01.3a2.48,2.48,0,0,0-.83-.119V3.29Z" transform="translate(-1.468 -1.201)"/><path class="g" d="M3.81,3.291c-.416,0-.639.577-.639.577a.51.51,0,0,0-.463-.274.653.653,0,0,0-.506.393A3.816,3.816,0,0,0,3.81,5.315,3.816,3.816,0,0,0,5.419,3.988a.653.653,0,0,0-.506-.393.511.511,0,0,0-.464.274s-.223-.577-.639-.577Z" transform="translate(-1.622 -0.067)"/></g></g></g><path class="i" d="M15.4,10.044H0V0H15.736V10.044Zm0-.335V.335H.335V9.709Z" transform="translate(0.018 29.758)"/></g></g></svg>